<svg><defs/><symbol id="icon-angular.svg" viewBox="0 0 250 250"><style type="text/css">
	.st0{fill:#DD0031;}
	.st1{fill:#C3002F;}
	.st2{fill:#FFFFFF;}
</style><g><polygon class="st0" points="125,30 125,30 125,30 31.9,63.2 46.1,186.3 125,230 125,230 125,230 203.9,186.3 218.1,63.2  "/><polygon class="st1" points="125,30 125,52.2 125,52.1 125,153.4 125,153.4 125,230 125,230 203.9,186.3 218.1,63.2 125,30  "/><path class="st2" d="M125,52.1L66.8,182.6h0h21.7h0l11.7-29.2h49.4l11.7,29.2h0h21.7h0L125,52.1L125,52.1L125,52.1L125,52.1   L125,52.1z M142,135.4H108l17-40.9L142,135.4z"/></g></symbol><symbol id="icon-css.svg" viewBox="0 0 32 32"><g><polygon fill="#1F62AE" points="27.377,28.889 16.001,32 4.625,28.889 2,0 30.002,0  "/><polygon fill="#347DC6" points="16,2 16,29.75 25.232,27.008 27.688,2  "/><polygon fill="#FFFFFF" points="24.363,6 7.607,6 8,10 16,10 8.25,12.99 8.619,17 19.502,17 19.158,21 16,21.99 12.861,20.984    12.533,19 8.803,19 9.262,23.987 16,25.99 22.728,23.986 23.719,12.99 16.026,12.99 24,10  "/></g><g/><g/><g/><g/><g/><g/></symbol><symbol id="icon-html.svg" viewBox="0 0 32 32"><g><polygon fill="#E44D26" points="27.377,28.889 16.001,32 4.625,28.889 2,0 30.002,0  "/><polygon fill="#FF6C39" points="16,2 16,29.75 25.232,27.008 27.688,2  "/><polygon fill="#FFFFFF" points="24.363,6 7.607,6 8,10 8.619,17 19.503,17 19.148,20.984 16,21.99 12.857,20.984 12.648,19    8.803,19 9.262,23.987 16,25.99 22.728,23.986 23.718,13 12.252,13 12.002,10 24,10  "/></g><g/><g/><g/><g/><g/><g/></symbol><symbol id="icon-js.svg" viewBox="0 0 128 128"><g><g><g><circle cx="64" cy="64" r="50" style="fill:#F0DB4F;"/></g></g><g id="Layer_1_1_"><g><g><path d="M48.4,44.6h8.7v24.5c0,11-5.3,14.9-13.7,14.9c-2.1,0-4.7-0.3-6.4-0.9l1-7.1      c1.2,0.4,2.8,0.7,4.5,0.7c3.7,0,6-1.7,6-7.6L48.4,44.6L48.4,44.6z" style="fill:#323330;"/><path d="M64.8,74.4c2.3,1.2,6,2.4,9.7,2.4c4,0,6.1-1.7,6.1-4.3c0-2.4-1.8-3.8-6.5-5.4      c-6.4-2.3-10.7-5.9-10.7-11.6C63.4,49,69,44,78.1,44c4.4,0,7.6,0.9,9.9,2l-2,7c-1.5-0.7-4.3-1.8-8-1.8c-3.8,0-5.6,1.8-5.6,3.7      c0,2.5,2.1,3.6,7.2,5.5c6.8,2.5,10,6.1,10,11.6c0,6.5-4.9,12-15.6,12c-4.4,0-8.8-1.2-11-2.4L64.8,74.4z" style="fill:#323330;"/></g></g></g></g></symbol></svg>